<svg width="420" height="449" viewBox="0 0 509 399" fill="none" xmlns="http://www.w3.org/2000/svg">
<path fill-rule="evenodd" clip-rule="evenodd" d="M467.059 329.127H174.715C170.796 329.127 167.618 332.305 167.618 336.225V391.114C167.618 395.034 170.796 398.211 174.715 398.211H467.059C470.979 398.211 474.156 395.034 474.156 391.114V336.225C474.156 332.305 470.979 329.127 467.059 329.127ZM174.715 328.339C170.36 328.339 166.83 331.869 166.83 336.225V391.114C166.83 395.469 170.36 399 174.715 399H467.059C471.414 399 474.945 395.469 474.945 391.114V336.225C474.945 331.869 471.414 328.339 467.059 328.339H174.715Z" fill="#D7DCF1"/>
<path d="M199.695 358.329C199.695 355.833 201.718 353.81 204.214 353.81H322.53C325.026 353.81 327.049 355.833 327.049 358.329V358.329C327.049 360.824 325.026 362.848 322.53 362.848H204.214C201.718 362.848 199.695 360.824 199.695 358.329V358.329Z" fill="#E7EBFD"/>
<path d="M199.695 371.475C199.695 369.887 200.983 368.6 202.571 368.6H283.092C284.68 368.6 285.967 369.887 285.967 371.475V371.475C285.967 373.064 284.68 374.351 283.091 374.351H202.571C200.983 374.351 199.695 373.064 199.695 371.475V371.475Z" fill="#E7EBFD"/>
<path d="M325.406 371.475C325.406 369.887 324.118 368.6 322.53 368.6H295.416C293.828 368.6 292.54 369.887 292.54 371.475V371.475C292.54 373.064 293.828 374.351 295.416 374.351H322.53C324.118 374.351 325.406 373.064 325.406 371.475V371.475Z" fill="#ED7160"/>
<path d="M426.468 371.475C426.468 369.887 425.181 368.6 423.592 368.6H371.829C370.241 368.6 368.953 369.887 368.953 371.475V371.475C368.953 373.064 370.241 374.351 371.829 374.351H423.592C425.181 374.351 426.468 373.064 426.468 371.475V371.475Z" fill="#ED7160"/>
<path fill-rule="evenodd" clip-rule="evenodd" d="M359.783 371.403C359.783 378.277 354.21 383.849 347.336 383.849C340.462 383.849 334.889 378.277 334.889 371.403C334.889 364.528 340.462 358.956 347.336 358.956C354.21 358.956 359.783 364.528 359.783 371.403ZM364.969 371.403C364.969 381.141 357.074 389.036 347.336 389.036C343.362 389.036 339.695 387.721 336.747 385.503L331.117 391.132C329.902 392.347 327.932 392.347 326.717 391.132C325.502 389.917 325.502 387.947 326.717 386.732L332.505 380.944C330.732 378.193 329.703 374.918 329.703 371.403C329.703 361.664 337.598 353.77 347.336 353.77C357.074 353.77 364.969 361.664 364.969 371.403Z" fill="#B5C1EF"/>
<path d="M337.418 371.402C337.418 365.94 341.846 361.512 347.308 361.512V361.512C352.771 361.512 357.199 365.94 357.199 371.402V371.402C357.199 376.865 352.771 381.293 347.308 381.293V381.293C341.846 381.293 337.418 376.865 337.418 371.402V371.402Z" fill="#ED7160"/>
<path d="M347.308 366.671C344.697 366.671 342.578 368.79 342.578 371.401C342.578 374.013 344.697 376.131 347.308 376.131C349.92 376.131 352.039 374.013 352.039 371.401C352.039 368.79 349.92 366.671 347.308 366.671ZM348.097 374.351C348.097 374.462 348.011 374.555 347.906 374.555H346.723C346.612 374.555 346.52 374.462 346.52 374.351V373.181C346.52 373.07 346.612 372.978 346.723 372.978H347.906C348.011 372.978 348.097 373.07 348.097 373.181V374.351ZM348.084 372.233C348.078 372.319 347.986 372.387 347.875 372.387H346.736C346.619 372.387 346.526 372.319 346.526 372.233L346.421 368.408C346.421 368.365 346.44 368.322 346.483 368.297C346.52 368.266 346.575 368.248 346.631 368.248H347.986C348.041 368.248 348.097 368.266 348.134 368.297C348.177 368.322 348.195 368.365 348.195 368.408L348.084 372.233Z" fill="white"/>
<path d="M174.197 82.5352L160.844 74.7429L160.822 248.986L174.178 256.776L174.197 82.5352Z" fill="#7983AB"/>
<path d="M174.197 82.5352L174.177 256.776L232.455 223.129L232.477 48.886L174.197 82.5352" fill="#959FCA"/>
<path d="M232.4 48.899L218.809 40.913L160.856 74.7251L174.214 82.5586L232.4 48.899Z" fill="#B5C1EF"/>
<path d="M2.13208 298.573C3.33243 295.855 4.97991 293.258 6.90706 291.062C8.53027 289.214 10.3538 287.65 12.2788 286.538L18.2189 289.99C16.2917 291.102 14.4703 292.665 12.847 294.513C10.9177 296.709 9.27025 299.306 8.06991 302.024C6.7176 305.085 5.92908 308.296 5.93789 311.259C5.9489 315.146 7.32105 317.877 9.53012 319.161L3.59014 315.71C1.38327 314.426 0.0110754 311.695 6.31337e-05 307.807C-0.00874671 304.845 0.779773 301.634 2.13208 298.573" fill="#B5C1EF"/>
<path fill-rule="evenodd" clip-rule="evenodd" d="M508.684 0L12.2792 286.539L18.2193 289.99L508.684 6.87689V0Z" fill="#B5C1EF"/>
<path fill-rule="evenodd" clip-rule="evenodd" d="M508.684 90.0059L90.9393 331.974C84.1447 335.896 78.6364 345.435 78.6606 353.243C78.6826 361.077 84.2262 364.209 91.0186 360.286L508.684 118.365V90.0059Z" fill="#959FCA"/>
<path fill-rule="evenodd" clip-rule="evenodd" d="M508.684 6.62598L18.2193 289.99C11.4247 293.913 5.91627 303.452 5.9383 311.259C5.96032 319.093 11.5062 322.223 18.2986 318.303L508.684 34.8671V6.62598Z" fill="#959FCA"/>
<path d="M17.687 311.943C17.5328 311.538 17.3831 311.128 17.2773 310.668C17.2047 310.355 17.1672 310.014 17.1187 309.677C17.0747 309.362 16.9932 309.082 16.9712 308.748C16.9492 308.424 16.9382 308.089 16.936 307.748C16.9338 306.895 17.0219 306.019 17.1474 305.136C17.1805 304.918 17.2135 304.702 17.2509 304.484C17.2905 304.268 17.3082 304.056 17.3545 303.838C17.4448 303.4 17.5879 302.957 17.709 302.515C17.7927 302.197 17.8632 301.885 17.9623 301.568C18.2156 300.757 18.5151 299.953 18.8521 299.156L18.9975 298.777L19.0173 298.726C19.3961 297.87 19.8344 297.033 20.2969 296.211C20.4181 295.995 20.5414 295.788 20.667 295.577C21.1097 294.832 21.5766 294.11 22.0809 293.414L22.277 293.128C22.7373 292.509 23.2152 291.908 23.7151 291.337L24.0146 291.035C24.3164 290.703 24.6313 290.403 24.9463 290.095C25.3515 289.694 25.7547 289.302 26.1775 288.941C26.5123 288.657 26.8536 288.403 27.1994 288.146C27.4703 287.941 27.7302 287.703 28.0077 287.518C28.3204 287.307 50.5892 275.392 42.202 279.665L109.059 315.147C108.457 315.495 92.0179 325.044 91.4408 325.475C91.0951 325.733 90.7515 325.989 90.4167 326.273C89.9938 326.632 89.5908 327.026 89.1877 327.425C88.8728 327.735 88.5534 328.037 88.2517 328.369C87.6482 329.032 87.0623 329.722 86.5183 330.457L86.3157 330.752C85.8158 331.444 85.3489 332.166 84.9084 332.904C84.7828 333.118 84.655 333.329 84.5339 333.545C84.0648 334.382 83.6221 335.234 83.2389 336.107L83.0869 336.501C82.7521 337.294 82.4526 338.095 82.2015 338.897C82.1024 339.216 82.0319 339.531 81.946 339.849C81.7698 340.507 81.6069 341.163 81.4923 341.813C81.4527 342.033 81.4196 342.252 81.3888 342.47C81.261 343.353 80.674 344.264 80.6762 345.114C80.6784 345.81 79.8411 345.991 79.9292 346.608C79.9777 346.945 79.1117 347.789 79.1822 348.102C79.2879 348.562 79.4016 348.815 79.5557 349.223C79.6548 349.482 78.3185 349.732 78.4352 349.97C78.6401 350.379 77.4327 351.12 77.6882 351.464L77.3147 353.331C77.731 353.791 77.1706 349.294 77.6882 349.596L20.4643 315.492C19.9445 315.19 19.4798 314.798 19.0635 314.337L18.698 313.822C18.4425 313.479 18.1891 313.133 17.9865 312.723C17.8676 312.483 17.7883 312.205 17.687 311.943Z" fill="#353855"/>
<path fill-rule="evenodd" clip-rule="evenodd" d="M505.696 11.9688L26.8082 288.273L91.0474 325.606L505.696 86.3657V11.9688Z" fill="#353855"/>
<path d="M75.6001 340.558C76.8004 337.84 78.4479 335.243 80.3772 333.048C81.9982 331.2 83.8219 329.636 85.7469 328.524L91.6869 331.975C89.7597 333.087 87.9383 334.651 86.3151 336.499C84.3857 338.695 82.7405 341.291 81.5379 344.009C80.1856 347.071 79.3994 350.282 79.4082 353.244C79.417 357.131 80.7891 359.862 82.9982 361.146L77.0604 357.695C74.8513 356.411 73.4791 353.68 73.4681 349.793C73.4593 346.83 74.2478 343.619 75.6001 340.558Z" fill="#B5C1EF"/>
<path d="M88.8124 346.188C89.1912 345.329 89.6978 344.484 90.3167 343.711L90.603 343.371C91.2505 342.631 91.9443 342.059 92.6292 341.662C93.5521 341.129 94.4617 340.92 95.2326 341.068C95.4925 341.116 95.7347 341.204 95.9572 341.334L99.0979 343.162C98.2059 342.645 96.9989 342.781 95.77 343.493C95.085 343.887 94.3912 344.462 93.7437 345.199L93.4574 345.541C92.8385 346.314 92.3319 347.16 91.9531 348.019C90.9752 350.232 90.8387 352.527 91.7747 353.829C91.9817 354.119 92.2262 354.344 92.5037 354.505L89.363 352.675C89.0855 352.514 88.8388 352.289 88.634 351.998C87.6958 350.697 87.8345 348.404 88.8124 346.188" fill="#353855"/>
<path d="M90.3166 343.712L90.6029 343.373C91.2505 342.633 91.9442 342.06 92.6292 341.663L95.7699 343.494C95.0849 343.888 94.3912 344.463 93.7436 345.201L93.4573 345.542C92.8384 346.313 92.3318 347.161 91.953 348.018L88.8124 346.19C89.1912 345.331 89.6977 344.485 90.3166 343.712" fill="#353855"/>
<path d="M93.4571 345.541C94.1861 344.636 94.9812 343.946 95.7696 343.493C97.3774 342.563 98.9456 342.616 99.8178 343.827C101.104 345.658 100.353 349.364 98.1373 352.115C97.4039 353.027 96.6022 353.721 95.8137 354.177C94.2015 355.106 92.6378 355.044 91.7744 353.829C90.4749 352.023 91.2414 348.307 93.4571 345.541" fill="#353855"/>
<path d="M94.3647 346.819C94.8096 346.266 95.2963 345.845 95.7786 345.568C96.7609 344.999 97.7212 345.03 98.2564 345.772C99.0405 346.891 98.5824 349.158 97.2257 350.84C96.7786 351.397 96.2896 351.823 95.8051 352.102C94.8206 352.67 93.8625 352.633 93.3361 351.889C92.541 350.783 93.0101 348.512 94.3647 346.819" fill="#B5C1EF"/>
<path d="M95.2941 351.805C95.7764 351.528 96.2654 351.103 96.7147 350.546C98.0692 348.863 98.5273 346.597 97.7432 345.476L97.5141 345.273C97.8005 345.361 98.0626 345.504 98.2564 345.773C99.0405 346.892 98.5824 349.158 97.2257 350.841C96.7786 351.398 96.2874 351.823 95.8051 352.103C94.9417 352.601 94.118 352.601 93.5673 352.098C94.0673 352.253 94.6686 352.167 95.2941 351.805" fill="#959FCA"/>
<path fill-rule="evenodd" clip-rule="evenodd" d="M507.512 84.916L85.1581 328.68L91.5236 332.041L507.512 91.8065V84.916Z" fill="#B5C1EF"/>
<path d="M177.803 84.4197L177.836 110.312L258.301 157.072L258.268 131.182L177.803 84.4197Z" fill="#7983AB"/>
<path d="M319.642 175.499V175.279H320.082V175.059H320.302V174.838H320.082V174.618H319.642V174.398H319.201V174.178H318.981V173.957H318.54V173.737H318.1V173.517H317.88V173.297H317.439V173.076H316.999V172.856H316.558V172.636H316.338V172.416H315.897V172.195H315.457V171.975H315.016V171.755H314.796V171.535H314.356V171.314H313.915V171.094H313.695V170.874H313.254V170.654H312.814V170.433H312.373V170.213H312.153V169.993H311.713V169.773H311.272V169.552H310.832V169.332H310.611V169.112H310.171V168.892H309.73V168.671H309.29V168.451H309.07V168.231H308.629V168.011H308.189V167.79H307.968V167.57H307.528V167.35H307.087V167.13H306.647V166.909H306.427V166.689H305.986V166.469H305.546V166.249H305.105V166.028H304.885V165.808H304.445V165.588H304.004V165.368H303.564V165.147H303.343V164.927H302.903V164.707H302.462V164.487H302.242V164.266H301.802V164.046H301.361V163.826H300.921V163.606H300.7V163.385H300.26V163.165H299.819V162.945H299.379V162.725H299.159V162.504H298.718V162.284H298.278V162.064H298.057V161.844H297.617V161.624H297.176V161.403H296.736V161.183H296.516V160.963H296.075V160.743H295.635V160.522H295.194V160.302H294.974V160.082H294.533V159.862H294.093V159.641H293.652V159.421H293.432V159.201H292.992V158.981H292.551V158.76H292.331V158.54H291.89V158.32H291.45V158.1H291.01V157.879H290.789V157.659H290.349V157.439H289.908V157.219H289.468V156.998H289.248V156.778H288.807V156.558H288.367V156.338H287.926V156.117H287.706V155.897H287.265V155.677H286.825V155.457H286.605V155.236H286.164V155.016H285.724V154.796H285.283V154.576H285.063V154.355H284.622V154.135H284.182V153.915H283.741V153.695H283.521V153.474H283.081V153.254H282.64V153.034H282.2V152.814H281.979V152.593H281.539V152.373H281.098V152.153H280.878V151.933H280.438V151.712H279.997V151.492H279.557V151.272H279.336V151.052H278.896V150.831H278.455V150.611H278.015V150.391H277.795V150.171H277.354V149.95H276.914V149.73H276.694V149.51H276.253V149.29H275.813V149.069H275.372V148.849H275.152V148.629H274.711V148.409H274.271V148.188H273.83V147.968H273.61V147.748H273.17V147.528H272.729V147.308H272.289V147.087H272.068V146.867H271.628V146.647H271.187V146.427H270.967V146.206H270.527V145.986H270.086V145.766H269.646V145.546H269.425V145.325H268.985V145.105H268.544V144.885H268.104V144.665H267.884V144.444H267.443V144.224H267.003V144.004H266.562V143.784H266.342V143.563H265.901V143.343H265.461V143.123H265.241V142.903H264.8V142.682H264.36V142.462H263.919V142.242H263.699V142.022H263.258V141.801H262.818V141.581H262.378V141.361H262.157V141.141H261.717V140.92H261.276V140.7H261.056V140.48H260.616V140.26H260.175V140.039H259.735V139.819H259.514V139.599H259.074V139.379H258.633V139.158H258.193V140.26H258.413V140.48H258.854V140.7H259.074V140.92H259.514V141.141H259.955V141.361H260.395V141.581H260.616V141.801H261.056V142.022H261.497V142.242H261.937V142.462H262.157V142.682H262.598V142.903H263.038V143.123H263.258V143.343H263.699V143.563H264.139V143.784H264.58V144.004H264.8V144.224H265.241V144.444H265.681V144.665H266.122V144.885H266.342V145.105H266.782V145.325H267.223V145.546H267.663V145.766H267.884V145.986H268.324V146.206H268.765V146.427H268.985V146.647H269.425V146.867H269.866V147.087H270.306V147.308H270.527V147.528H270.967V147.748H271.408V147.968H271.848V148.188H272.068V148.409H272.509V148.629H272.949V148.849H273.39V149.069H273.61V149.29H274.051V149.51H274.491V149.73H274.711V149.95H275.152V150.171H275.592V150.391H276.033V150.611H276.253V150.831H276.694V151.052H277.134V151.272H277.574V151.492H277.795V151.712H278.235V151.933H278.676V152.153H278.896V152.373H279.336V152.593H279.777V152.814H280.217V153.034H280.438V153.254H280.878V153.474H281.319V153.695H281.759V153.915H281.979V154.135H282.42V154.355H282.86V154.576H283.301V154.796H283.521V155.016H283.962V155.236H284.402V155.457H284.622V155.677H285.063V155.897H285.503V156.117H285.944V156.338H286.164V156.558H286.605V156.778H287.045V156.998H287.486V157.219H287.706V157.439H288.146V157.659H288.587V157.879H289.027V158.1H289.248V158.32H289.688V158.54H290.129V158.76H290.349V158.981H290.789V159.201H291.23V159.421H291.67V159.641H291.89V159.862H292.331V160.082H292.771V160.302H293.212V160.522H293.432V160.743H293.873V160.963H294.313V161.183H294.533V161.403H294.974V161.624H295.414V161.844H295.855V162.064H296.075V162.284H296.516V162.504H296.956V162.725H297.397V162.945H297.617V163.165H298.057V163.385H298.498V163.606H298.938V163.826H299.159V164.046H299.599V164.266H300.04V164.487H300.26V164.707H300.7V164.927H301.141V165.147H301.581V165.368H301.802V165.588H302.242V165.808H302.683V166.028H303.123V166.249H303.343V166.469H303.784V166.689H304.224V166.909H304.665V167.13H304.885V167.35H305.326V167.57H305.766V167.79H305.986V168.011H306.427V168.231H306.867V168.451H307.308V168.671H307.528V168.892H307.968V169.112H308.409V169.332H308.849V169.552H309.07V169.773H309.51V169.993H309.951V170.213H310.391V170.433H310.611V170.654H311.052V170.874H311.492V171.094H311.713V171.314H312.153V171.535H312.594V171.755H313.034V171.975H313.254V172.195H313.695V172.416H314.135V172.636H314.576V172.856H314.796V173.076H315.237V173.297H315.677V173.517H315.897V173.737H316.338V173.957H316.778V174.178H317.219V174.398H317.439V174.618H317.88V174.838H318.32V175.059H318.761V175.279H318.981V175.499" fill="#353855"/>
<path d="M322.174 177.133L328.112 180.584C325.872 179.283 322.769 179.463 319.351 181.437L313.413 177.985C316.831 176.012 319.932 175.831 322.174 177.133Z" fill="#B5C1EF"/>
<path d="M258.263 131.182L258.296 157.072L309.913 127.271L309.88 101.381L258.263 131.182Z" fill="#959FCA"/>
<path d="M177.799 84.419L258.263 131.182L309.88 101.38L229.415 54.6196L177.799 84.419Z" fill="#B5C1EF"/>
<path d="M323.597 101.656L309.86 93.6433L251.72 127.211L265.456 135.224L323.597 101.656Z" fill="#B5C1EF"/>
<path d="M265.456 135.224L265.436 201.252L323.577 167.684L323.597 101.657L265.456 135.224Z" fill="#959FCA"/>
<path d="M251.7 291.676L251.72 127.211L265.456 135.224L265.452 191.14L279.14 224.596L279.121 307.668L251.7 291.676" fill="#7983AB"/>
<path d="M323.546 157.457L337.283 191.029L279.14 224.597L265.404 191.027L323.546 157.457" fill="#B5C1EF"/>
<path d="M279.14 224.596L337.283 191.028L337.261 274.1L279.121 307.668L279.14 224.596" fill="#959FCA"/>
<path d="M275.345 153.188L312.69 131.628V116.622L275.345 138.184V153.188" fill="#353855"/>
<path d="M291.131 146.246V168.729L275.37 177.827L275.368 155.347L291.131 146.246Z" fill="#959FCA"/>
<path d="M291.131 146.246L288.763 147.614L288.765 167.361L275.37 175.096V177.827L291.131 168.729V146.246" fill="#B5C1EF"/>
<path d="M291.131 146.245L288.763 147.613L288.765 167.36L291.131 168.728V146.245" fill="#7983AB"/>
<path d="M283.646 162.057L283.609 162.017L283.831 162.039L286.107 160.724L286.366 160.275L286.362 158.815L286.287 158.647V158.645L285.86 158.398L285.798 158.385L286.1 158.211L286.36 157.76L286.355 156.295L286.278 156.128H286.281H286.278L285.851 155.879L285.789 155.866L286.093 155.692L286.353 155.242L286.349 153.775L286.272 153.608L285.844 153.359L285.783 153.346L286.087 153.172L286.344 152.723L286.342 151.262L286.265 151.095V151.093L285.838 150.846L285.651 150.864L283.376 152.179L283.116 152.628L283.12 154.088L283.195 154.256L283.624 154.504L283.589 154.465L283.686 154.518L283.382 154.692L283.122 155.143L283.127 156.608L283.204 156.775L283.631 157.024L283.596 156.982L283.693 157.037L283.391 157.211L283.131 157.661L283.133 159.127L283.21 159.295L283.638 159.544L283.605 159.504L283.699 159.555L283.398 159.731L283.138 160.18L283.142 161.64L283.217 161.808L283.646 162.057" fill="#959FCA"/>
<path d="M286.301 163.395L285.873 163.146L285.686 163.166L283.411 164.479L283.151 164.93L283.156 166.39L283.23 166.558L283.66 166.807L283.625 166.767L283.845 166.787L286.12 165.474L286.38 165.023L286.378 163.562L286.301 163.395" fill="#4D8607"/>
<path d="M280.206 164.043L280.171 164.003L280.391 164.023L282.662 162.713L282.922 162.263L282.917 160.803L282.843 160.636L282.413 160.387L282.354 160.374L282.655 160.2L282.915 159.748L282.911 158.284L282.836 158.116H282.834L282.406 157.867L282.345 157.854L282.649 157.68L282.909 157.231L282.904 155.764L282.827 155.597H282.829L282.4 155.348L282.338 155.334L282.642 155.16L282.902 154.711L282.898 153.251L282.821 153.084V153.081L282.393 152.835L282.208 152.852L279.935 154.165L279.675 154.614L279.68 156.074L279.757 156.242L280.184 156.491L280.149 156.451L280.246 156.502L279.942 156.678L279.684 157.127L279.686 158.594L279.764 158.761L280.191 159.01L280.156 158.968L280.252 159.021L279.951 159.198L279.691 159.647L279.695 161.114L279.77 161.281L280.197 161.528L280.164 161.49L280.259 161.541L279.957 161.717L279.697 162.166L279.702 163.627L279.777 163.794L280.206 164.043" fill="#959FCA"/>
<path d="M282.856 165.384L282.429 165.135L282.242 165.155L279.971 166.465L279.711 166.915L279.716 168.375L279.79 168.542L280.22 168.791L280.185 168.754L280.405 168.773L282.676 167.463L282.936 167.011L282.933 165.551L282.856 165.384" fill="#959FCA"/>
<path d="M276.762 166.031L276.727 165.992L276.947 166.011L279.224 164.699L279.482 164.247L279.48 162.787L279.4 162.622H279.403L278.975 162.373L278.912 162.36L279.215 162.184L279.475 161.734L279.471 160.27L279.394 160.102H279.396L278.967 159.853L278.905 159.842L279.209 159.666L279.469 159.215L279.464 157.75L279.387 157.583L278.96 157.336L278.896 157.323L279.202 157.147L279.462 156.695L279.458 155.235L279.381 155.07L278.953 154.821L278.768 154.838L276.491 156.151L276.231 156.602L276.236 158.063L276.313 158.23L276.74 158.479L276.702 158.435L276.802 158.49L276.5 158.666L276.24 159.116L276.242 160.582L276.319 160.75L276.746 160.999L276.711 160.957L276.808 161.01L276.506 161.186L276.247 161.635L276.251 163.1L276.326 163.267L276.755 163.516L276.716 163.474L276.817 163.529L276.513 163.705L276.253 164.155L276.258 165.615L276.332 165.782L276.762 166.031" fill="#959FCA"/>
<path d="M279.414 167.373H279.416L278.989 167.124L278.804 167.14L276.526 168.454L276.266 168.904L276.271 170.364L276.348 170.531L276.775 170.78L276.742 170.745L276.96 170.763L279.237 169.448L279.497 168.998L279.493 167.538L279.414 167.373" fill="#BA1A0F"/>
<path d="M282.658 160.653L282.917 160.802L282.922 162.263L282.662 162.712L280.391 164.022L280.129 163.875L280.125 162.415L280.385 161.963L282.658 160.653Z" fill="#B5C1EF"/>
<path d="M286.102 158.665L286.362 158.815L286.366 160.275L286.107 160.724L283.831 162.039L283.569 161.889L283.565 160.429L283.825 159.98L286.102 158.665Z" fill="#B5C1EF"/>
<path d="M286.094 156.146L286.356 156.296L286.361 157.76L286.101 158.212L283.826 159.524L283.563 159.377L283.559 157.91L283.819 157.461L286.094 156.146Z" fill="#B5C1EF"/>
<path d="M286.087 153.625L286.349 153.775L286.354 155.242L286.094 155.691L283.816 157.004L283.556 156.856L283.552 155.389L283.812 154.94L286.087 153.625Z" fill="#B5C1EF"/>
<path d="M286.081 151.112L286.343 151.262L286.345 152.722L286.087 153.171L283.81 154.486L283.548 154.337L283.543 152.876L283.803 152.427L286.081 151.112Z" fill="#B5C1EF"/>
<path d="M286.116 163.414L286.378 163.562L286.38 165.022L286.12 165.473L283.845 166.786L283.583 166.639L283.578 165.178L283.838 164.727L286.116 163.414" fill="#5B9E14"/>
<path d="M282.649 158.134L282.911 158.284L282.915 159.749L282.655 160.2L280.385 161.511L280.123 161.361L280.118 159.896L280.378 159.447L282.649 158.134Z" fill="#B5C1EF"/>
<path d="M282.642 155.615L282.905 155.765L282.909 157.231L282.649 157.681L280.378 158.991L280.116 158.844L280.112 157.377L280.372 156.928L282.642 155.615Z" fill="#B5C1EF"/>
<path d="M282.636 153.101L282.898 153.251L282.902 154.711L282.642 155.16L280.37 156.471L280.107 156.323L280.105 154.863L280.365 154.411L282.636 153.101" fill="#B5C1EF"/>
<path d="M282.671 165.404L282.933 165.551L282.936 167.011L282.676 167.463L280.405 168.773L280.143 168.624L280.138 167.163L280.398 166.714L282.671 165.404" fill="#B5C1EF"/>
<path d="M279.218 162.64L279.48 162.79L279.482 164.248L279.224 164.699L276.947 166.012L276.685 165.864L276.68 164.404L276.94 163.952L279.218 162.64" fill="#B5C1EF"/>
<path d="M279.211 160.119L279.471 160.269L279.475 161.734L279.215 162.183L276.94 163.498L276.678 163.348L276.674 161.884L276.934 161.434L279.211 160.119Z" fill="#B5C1EF"/>
<path d="M279.202 157.602L279.464 157.752L279.469 159.216L279.209 159.668L276.934 160.98L276.672 160.831L276.667 159.366L276.927 158.917L279.202 157.602Z" fill="#B5C1EF"/>
<path d="M279.195 155.087L279.458 155.235L279.462 156.695L279.202 157.146L276.925 158.459L276.663 158.311L276.66 156.851L276.92 156.4L279.195 155.087" fill="#B5C1EF"/>
<path d="M279.231 167.389L279.493 167.538L279.497 168.999L279.237 169.448L276.96 170.763L276.698 170.613L276.696 169.153L276.956 168.703L279.231 167.389" fill="#E94B46"/>
<path d="M298.141 145.268C298.141 146.1 297.465 147.168 296.632 147.648C295.797 148.131 295.121 147.844 295.121 147.012C295.121 146.177 295.797 145.111 296.632 144.629C297.465 144.146 298.141 144.433 298.141 145.268Z" fill="#7983AB"/>
<path d="M297.663 145.399C297.663 146.049 297.135 146.881 296.485 147.256C295.835 147.632 295.309 147.408 295.309 146.758C295.309 146.108 295.835 145.278 296.485 144.903C297.135 144.527 297.663 144.749 297.663 145.399Z" fill="#353855"/>
<path d="M305.281 141.143C305.281 141.978 304.605 143.044 303.771 143.526C302.936 144.009 302.26 143.722 302.26 142.888C302.26 142.053 302.936 140.987 303.771 140.507C304.605 140.025 305.281 140.311 305.281 141.143Z" fill="#7983AB"/>
<path d="M304.801 141.277C304.801 141.927 304.275 142.757 303.625 143.134C302.975 143.508 302.447 143.286 302.447 142.636C302.447 141.986 302.975 141.154 303.625 140.779C304.275 140.405 304.801 140.627 304.801 141.277Z" fill="#353855"/>
<path d="M312.42 137.022C312.42 137.857 311.744 138.923 310.911 139.403C310.077 139.886 309.4 139.599 309.4 138.767C309.4 137.932 310.077 136.866 310.911 136.384C311.744 135.901 312.42 136.188 312.42 137.022Z" fill="#7983AB"/>
<path d="M311.942 137.156C311.942 137.808 311.413 138.638 310.763 139.013C310.114 139.389 309.587 139.165 309.587 138.515C309.587 137.865 310.114 137.035 310.763 136.66C311.413 136.284 311.942 136.506 311.942 137.156Z" fill="#353855"/>
<path d="M298.141 150.637C298.141 151.469 297.465 152.537 296.632 153.018C295.797 153.5 295.121 153.214 295.121 152.381C295.121 151.546 295.797 150.48 296.632 149.998C297.465 149.516 298.141 149.802 298.141 150.637Z" fill="#7983AB"/>
<path d="M297.663 150.769C297.663 151.421 297.135 152.251 296.485 152.626C295.835 153.002 295.309 152.778 295.309 152.128C295.309 151.478 295.835 150.648 296.485 150.274C297.135 149.897 297.663 150.119 297.663 150.769Z" fill="#353855"/>
<path d="M305.281 146.514C305.281 147.349 304.605 148.415 303.771 148.898C302.936 149.38 302.26 149.094 302.26 148.259C302.26 147.424 302.936 146.358 303.771 145.878C304.605 145.396 305.281 145.682 305.281 146.514Z" fill="#7983AB"/>
<path d="M304.801 146.648C304.801 147.298 304.275 148.128 303.625 148.505C302.975 148.879 302.447 148.657 302.447 148.007C302.447 147.357 302.975 146.525 303.625 146.15C304.275 145.776 304.801 145.998 304.801 146.648Z" fill="#353855"/>
<path d="M312.42 142.392C312.42 143.227 311.744 144.293 310.911 144.775C310.077 145.255 309.4 144.969 309.4 144.136C309.4 143.302 310.077 142.236 310.911 141.753C311.744 141.271 312.42 141.557 312.42 142.392Z" fill="#7983AB"/>
<path d="M311.942 142.524C311.942 143.176 311.413 144.006 310.763 144.381C310.114 144.757 309.587 144.533 309.587 143.883C309.587 143.233 310.114 142.403 310.763 142.029C311.413 141.652 311.942 141.874 311.942 142.524Z" fill="#353855"/>
<path d="M192.461 216.194L212.973 204.303C214.201 203.591 215.715 203.591 216.943 204.303L249.942 223.581C251.174 224.295 251.174 226.081 249.942 226.795L229.43 238.686C228.201 239.398 226.688 239.398 225.459 238.686L192.461 219.408C191.229 218.693 191.229 216.908 192.461 216.194Z" fill="#272A47"/>
<path d="M250.866 221.917V194.639L191.537 187.252V214.53C191.537 215.155 191.845 215.78 192.461 216.137L225.459 235.416C226.688 236.128 228.201 236.128 229.43 235.416L249.942 223.525C250.558 223.168 250.866 222.542 250.866 221.917Z" fill="url(#paint0_linear)"/>
<path d="M192.461 185.648L212.973 173.757C214.201 173.045 215.715 173.045 216.943 173.757L249.942 193.035C251.174 193.749 251.174 195.535 249.942 196.249L229.43 208.14C228.201 208.852 226.688 208.852 225.459 208.14L192.461 188.862C191.229 188.148 191.229 186.362 192.461 185.648Z" fill="#FCFDFF"/>
<path d="M209.818 224.281L211.961 225.523V202.376L209.818 201.134V224.281Z" fill="#9BA8D8"/>
<path d="M222.675 208.587V231.734L225.044 233.107V209.96L222.675 208.587Z" fill="#9BA8D8"/>
<path d="M214.104 203.617V226.764L216.246 228.006V204.859L214.104 203.617Z" fill="#9BA8D8"/>
<path d="M205.533 221.794L207.675 223.037V199.89L205.533 198.647V221.794Z" fill="#9BA8D8"/>
<path d="M218.389 206.103V229.249L220.532 230.492V207.345L218.389 206.103Z" fill="#9BA8D8"/>
<path d="M203.39 197.409L201.347 196.225V219.372L203.39 220.556V197.409Z" fill="#9BA8D8"/>
<path d="M194.85 192.429L192.807 191.244V214.391L194.85 215.576V192.429Z" fill="#9BA8D8"/>
<path d="M196.962 216.757L199.104 218V194.853L196.962 193.61V216.757Z" fill="#9BA8D8"/>
<path d="M194.819 192.37L192.776 191.186V214.333L194.819 215.517V192.37Z" fill="#9BA8D8"/>
<path d="M239.499 204.296L229.766 209.961V233.108L239.499 227.443V204.296Z" fill="#B5C1EF"/>
<path d="M240.424 203.759V226.906L249.232 221.797V198.65L240.424 203.759Z" fill="#B5C1EF"/>
<path d="M241.927 215.806L237.903 218.139C237.497 218.374 237.168 218.125 237.168 217.582C237.168 217.039 237.497 216.408 237.903 216.173L241.927 213.84C242.332 213.605 242.661 213.855 242.661 214.398C242.661 214.94 242.332 215.571 241.927 215.806Z" fill="#FCFDFF"/>
<path d="M255.932 189.999L238.926 180.953C237.358 180.592 233.715 180.592 231.689 183.486C229.156 187.105 230.242 199.407 230.242 202.663C230.242 205.92 242.182 213.156 247.248 214.242C251.3 215.11 256.173 211.95 258.103 210.262V195.065C258.103 191.881 256.655 190.361 255.932 189.999Z" fill="#ED7160"/>
<path d="M257.379 192.131L232.413 202.624C232.413 204.433 233.643 208.775 238.564 211.67C243.485 214.564 253.64 212.876 258.103 211.67V195.387C258.103 193.94 257.62 192.613 257.379 192.131Z" fill="#E87F71"/>
<path fill-rule="evenodd" clip-rule="evenodd" d="M263.268 191.607C261.114 182.972 252.369 177.719 243.735 179.872C235.101 182.026 229.847 190.771 232.001 199.405C234.154 208.04 242.899 213.293 251.534 211.14C260.168 208.986 265.421 200.241 263.268 191.607ZM269.782 189.982C266.731 177.75 254.342 170.308 242.11 173.359C229.878 176.409 222.436 188.798 225.487 201.03C228.538 213.262 240.927 220.704 253.158 217.654C265.39 214.603 272.833 202.214 269.782 189.982Z" fill="white"/>
<path d="M264.139 211.07C262.232 209.925 261.615 207.45 262.761 205.543V205.543C263.906 203.636 266.381 203.019 268.288 204.164L277.496 209.696C279.403 210.842 280.02 213.316 278.875 215.223V215.223C277.729 217.13 275.254 217.748 273.347 216.602L264.139 211.07Z" fill="white"/>
<path d="M259.55 173.717C259.55 167.522 264.572 162.5 270.767 162.5V162.5C276.961 162.5 281.983 167.522 281.983 173.717V173.717C281.983 179.912 276.961 184.934 270.767 184.934V184.934C264.572 184.934 259.55 179.912 259.55 173.717V173.717Z" fill="#ED7160"/>
<path d="M270.767 168.353C267.805 168.353 265.402 170.755 265.402 173.717C265.402 176.679 267.805 179.082 270.767 179.082C273.728 179.082 276.131 176.679 276.131 173.717C276.131 170.755 273.728 168.353 270.767 168.353ZM271.661 177.063C271.661 177.189 271.563 177.293 271.444 177.293H270.103C269.977 177.293 269.873 177.189 269.873 177.063V175.736C269.873 175.61 269.977 175.505 270.103 175.505H271.444C271.563 175.505 271.661 175.61 271.661 175.736V177.063ZM271.647 174.66C271.64 174.758 271.535 174.835 271.409 174.835H270.117C269.984 174.835 269.88 174.758 269.88 174.66L269.761 170.322C269.761 170.273 269.782 170.225 269.831 170.197C269.873 170.162 269.935 170.141 269.998 170.141H271.535C271.598 170.141 271.661 170.162 271.703 170.197C271.752 170.225 271.772 170.273 271.772 170.322L271.647 174.66Z" fill="white"/>
<path fill-rule="evenodd" clip-rule="evenodd" d="M276.649 180.492L277.391 179.101L376.789 232.085C378.48 232.863 380.998 234.291 383.111 236.083C384.173 236.984 385.155 237.996 385.877 239.085C386.598 240.173 387.087 241.379 387.087 242.652V327.281H385.51V242.652C385.51 241.788 385.177 240.883 384.563 239.956C383.949 239.031 383.083 238.128 382.091 237.286C380.104 235.601 377.705 234.24 376.11 233.509L376.088 233.499L276.649 180.492Z" fill="#ED7160"/>
<circle cx="385.887" cy="328.513" r="5.75148" fill="#ED7160"/>
<path d="M108.668 263.13C105.698 261.544 105.662 258.907 108.587 257.239L134.8 242.297C137.724 240.63 142.502 240.564 145.472 242.15L172.085 256.368C175.054 257.954 175.09 260.592 172.166 262.259L145.953 277.201C143.028 278.868 138.25 278.934 135.281 277.348L108.668 263.13Z" fill="#272A47"/>
<path d="M108.668 246.92C105.698 245.334 105.662 242.697 108.587 241.029L134.8 226.087C137.724 224.42 142.502 224.354 145.472 225.94L172.085 240.158C175.054 241.744 175.09 244.382 172.166 246.049L145.953 260.991C143.028 262.659 138.25 262.724 135.281 261.138L108.668 246.92Z" fill="#7983AB"/>
<path fill-rule="evenodd" clip-rule="evenodd" d="M106.435 244.268C106.559 245.244 107.304 246.194 108.668 246.922L135.281 261.14C138.25 262.726 143.028 262.661 145.953 260.993L172.166 246.051C173.674 245.191 174.395 244.073 174.332 242.975H174.339V255.425L174.335 255.424C174.373 256.506 173.651 257.603 172.166 258.45L145.953 273.393C143.028 275.06 138.25 275.125 135.281 273.539L108.668 259.322C107.033 258.448 106.287 257.256 106.435 256.083V244.268Z" fill="#959FCA"/>
<path fill-rule="evenodd" clip-rule="evenodd" d="M170.656 252.534C170.815 252.805 170.724 253.153 170.453 253.313L156.735 261.371C156.464 261.53 156.116 261.439 155.956 261.168V261.168C155.797 260.897 155.888 260.549 156.159 260.39L169.877 252.332C170.148 252.173 170.497 252.263 170.656 252.534V252.534Z" fill="#626C93" fill-opacity="0.8"/>
<ellipse rx="1.23817" ry="1.23817" transform="matrix(0.980661 -0.195715 -0.40424 0.914653 146.822 266.223)" fill="#1563FF"/>
<ellipse rx="1.23817" ry="1.23817" transform="matrix(0.980661 -0.195715 -0.40424 0.914653 150.212 264.47)" fill="#1563FF"/>
<path d="M108.668 230.586C105.698 229 105.662 226.363 108.587 224.696L134.8 209.753C137.725 208.086 142.502 208.02 145.472 209.606L172.085 223.824C175.054 225.41 175.091 228.048 172.166 229.715L145.953 244.657C143.028 246.325 138.25 246.39 135.281 244.804L108.668 230.586Z" fill="#B5C1EF"/>
<path fill-rule="evenodd" clip-rule="evenodd" d="M106.436 227.932C106.56 228.908 107.305 229.858 108.668 230.586L135.281 244.803C138.25 246.39 143.028 246.324 145.953 244.657L172.166 229.714C173.673 228.855 174.394 227.738 174.332 226.641H174.34V239.091L174.335 239.09C174.373 240.173 173.651 241.269 172.166 242.116L145.953 257.059C143.029 258.726 138.251 258.792 135.281 257.205L108.668 242.988C107.033 242.114 106.287 240.922 106.436 239.748V227.932Z" fill="#959FCA"/>
<path fill-rule="evenodd" clip-rule="evenodd" d="M170.656 236.201C170.815 236.472 170.724 236.82 170.453 236.98L156.735 245.038C156.464 245.197 156.116 245.106 155.957 244.835V244.835C155.797 244.564 155.888 244.216 156.159 244.057L169.877 235.999C170.148 235.84 170.497 235.93 170.656 236.201V236.201Z" fill="#626C93" fill-opacity="0.8"/>
<ellipse rx="1.23817" ry="1.23817" transform="matrix(0.980661 -0.195715 -0.40424 0.914653 146.822 249.89)" fill="#1563FF"/>
<ellipse rx="1.23817" ry="1.23817" transform="matrix(0.980661 -0.195715 -0.40424 0.914653 150.212 248.137)" fill="#1563FF"/>
<path d="M343.017 129.216C340.048 127.63 340.012 124.993 342.936 123.325L369.149 108.383C372.074 106.716 376.852 106.65 379.821 108.236L406.435 122.454C409.404 124.04 409.44 126.677 406.515 128.345L380.302 143.287C377.378 144.954 372.6 145.02 369.631 143.434L343.017 129.216Z" fill="#272A47"/>
<path d="M343.018 113.005C340.048 111.419 340.012 108.782 342.937 107.114L369.15 92.1718C372.074 90.5047 376.852 90.4391 379.822 92.0253L406.435 106.243C409.404 107.829 409.44 110.467 406.516 112.134L380.303 127.076C377.378 128.743 372.6 128.809 369.631 127.223L343.018 113.005Z" fill="#7983AB"/>
<path fill-rule="evenodd" clip-rule="evenodd" d="M340.785 110.356C340.91 111.331 341.655 112.28 343.017 113.008L369.63 127.225C372.6 128.811 377.378 128.746 380.302 127.079L406.515 112.136C408.024 111.276 408.744 110.158 408.682 109.06H408.689V121.51L408.684 121.509C408.722 122.591 408.001 123.688 406.515 124.535L380.302 139.478C377.378 141.145 372.6 141.21 369.63 139.624L343.017 125.407C341.381 124.533 340.635 123.339 340.785 122.165V110.356Z" fill="#959FCA"/>
<path fill-rule="evenodd" clip-rule="evenodd" d="M405.005 118.62C405.164 118.891 405.074 119.239 404.803 119.398L391.085 127.457C390.814 127.616 390.465 127.525 390.306 127.254V127.254C390.147 126.983 390.238 126.635 390.508 126.476L404.227 118.418C404.498 118.258 404.846 118.349 405.005 118.62V118.62Z" fill="#626C93" fill-opacity="0.8"/>
<ellipse rx="1.23817" ry="1.23817" transform="matrix(0.980661 -0.195715 -0.40424 0.914653 381.172 132.31)" fill="#1563FF"/>
<ellipse rx="1.23817" ry="1.23817" transform="matrix(0.980661 -0.195715 -0.40424 0.914653 384.562 130.557)" fill="#1563FF"/>
<path d="M343.017 96.6724C340.048 95.0861 340.012 92.4486 342.936 90.7814L369.149 75.8388C372.074 74.1716 376.852 74.1061 379.821 75.6923L406.435 89.9098C409.404 91.496 409.44 94.1335 406.515 95.8007L380.302 110.743C377.378 112.41 372.6 112.476 369.631 110.89L343.017 96.6724Z" fill="#B5C1EF"/>
<path fill-rule="evenodd" clip-rule="evenodd" d="M340.785 94.0214C340.91 94.9966 341.655 95.9457 343.017 96.6735L369.63 110.891C372.6 112.477 377.378 112.412 380.302 110.744L406.515 95.8018C408.023 94.942 408.744 93.8242 408.681 92.7256H408.689V105.176L408.684 105.175C408.722 106.257 408 107.354 406.515 108.201L380.302 123.144C377.378 124.811 372.6 124.876 369.63 123.29L343.017 109.073C341.381 108.199 340.635 107.005 340.785 105.831V94.0214Z" fill="#959FCA"/>
<path fill-rule="evenodd" clip-rule="evenodd" d="M405.005 102.287C405.164 102.558 405.074 102.906 404.803 103.065L391.084 111.124C390.813 111.283 390.465 111.192 390.306 110.921V110.921C390.147 110.65 390.237 110.302 390.508 110.143L404.226 102.085C404.497 101.925 404.846 102.016 405.005 102.287V102.287Z" fill="#626C93" fill-opacity="0.8"/>
<ellipse rx="1.23817" ry="1.23817" transform="matrix(0.980661 -0.195715 -0.40424 0.914653 381.171 115.976)" fill="#1563FF"/>
<ellipse rx="1.23817" ry="1.23817" transform="matrix(0.980661 -0.195715 -0.40424 0.914653 384.561 114.223)" fill="#1563FF"/>
<ellipse cx="173.101" cy="223.422" rx="12.7354" ry="13.1297" fill="#1563FF"/>
<path fill-rule="evenodd" clip-rule="evenodd" d="M174.015 218.777V222.193H172.16V218.777C172.16 218.249 172.575 217.82 173.087 217.82C173.6 217.82 174.015 218.249 174.015 218.777ZM169.244 222.193H170.834V218.777C170.834 217.494 171.843 216.454 173.087 216.454C174.332 216.454 175.34 217.494 175.34 218.777V222.193H176.958C177.251 222.193 177.488 222.437 177.488 222.739V229.844C177.488 230.146 177.251 230.391 176.958 230.391H169.244C168.951 230.391 168.714 230.146 168.714 229.844V222.739C168.714 222.437 168.951 222.193 169.244 222.193ZM172.624 225.472C172.514 225.472 172.425 225.564 172.425 225.677V226.906C172.425 227.02 172.514 227.111 172.624 227.111H173.816C173.926 227.111 174.015 227.02 174.015 226.906V225.677C174.015 225.564 173.926 225.472 173.816 225.472H172.624Z" fill="white"/>
<path fill-rule="evenodd" clip-rule="evenodd" d="M356.842 60.5618C356.842 49.4769 365.932 40.459 377.105 40.459C388.278 40.459 397.367 49.4769 397.367 60.5618C397.367 64.2122 395.719 68.137 395.65 68.3013C395.117 69.556 394.067 71.5048 393.307 72.6471L379.413 93.5327C378.845 94.3876 378.003 94.8784 377.105 94.8784C376.206 94.8784 375.364 94.3876 374.796 93.5315L360.903 72.6471C360.145 71.5048 359.094 69.556 358.561 68.3013L358.559 68.2979C358.472 68.088 356.842 64.1888 356.842 60.5618Z" fill="white"/>
<path d="M362.667 59.7192C362.667 51.5512 369.289 44.9297 377.457 44.9297V44.9297C385.625 44.9297 392.246 51.5512 392.246 59.7192V59.7192C392.246 67.8872 385.625 74.5087 377.457 74.5087V74.5087C369.289 74.5087 362.667 67.8872 362.667 59.7192V59.7192Z" fill="#ED7160"/>
<path fill-rule="evenodd" clip-rule="evenodd" d="M373.366 56.9255H375.178V53.1543C375.178 52.5711 374.705 52.0983 374.122 52.0983C373.539 52.0983 373.066 52.5711 373.066 53.1543V54.2093H371.558V53.1543C371.558 51.738 372.706 50.5898 374.122 50.5898C375.539 50.5898 376.687 51.738 376.687 53.1543V56.9255H382.147C382.48 56.9255 382.75 57.1956 382.75 57.5289V65.373C382.75 65.7063 382.48 65.9764 382.147 65.9764H373.366C373.033 65.9764 372.763 65.7063 372.763 65.373V57.5289C372.763 57.1956 373.033 56.9255 373.366 56.9255ZM377.213 60.546C377.088 60.546 376.987 60.6473 376.987 60.7723V62.1299C376.987 62.2549 377.088 62.3562 377.213 62.3562H378.571C378.696 62.3562 378.797 62.2549 378.797 62.1299V60.7723C378.797 60.6473 378.696 60.546 378.571 60.546H377.213Z" fill="white"/>
<defs>
<linearGradient id="paint0_linear" x1="225.491" y1="211.601" x2="231.344" y2="211.601" gradientUnits="userSpaceOnUse">
<stop stop-color="#B5C1EF"/>
<stop offset="1" stop-color="#FCFDFF"/>
</linearGradient>
</defs>
</svg>
